PathFileType	4	(x/y/z)	S02_SL_Cal_T01
DataRate	CameraRate	NumFrames	NumMarkers	Units	OrigDataRate	OrigDataStartFrame	OrigNumFrames
240	240	4	51	mm	240	2101	2400
Frame#	Time	Sternum			R.Acromium			L.Acromium			Top.Head			R.ASIS			L.ASIS			R.PSIS			L.PSIS			R.Great.Tro			L.Great.Tro			R.Iliac.Crest			L.Iliac.Crest			V.Sacral			R.Thigh.Upper.Post			R.Thigh.Lower.Ant			R.Thigh.Lower.Post			R.Thigh.Upper.Ant			R.Knee.Lat			R.Knee.Med			R.Shank.Upper.Post			R.Shank.Lower.Ant			R.Shank.Lower.Post			R.Shank.Upper.Ant			R.Ankle.Lat			R.Ankle.Med			R.Heel.Upper			R.Heel.Med			R.Heel.Lat			R.Toe.Lat			R.Toe.Med			R.Toe.Tip			L.Thigh.Upper.Post			L.Thigh.Lower.Ant			L.Thigh.Lower.Post			L.Thigh.Upper.Ant			L.Knee.Lat			L.Knee.Med			L.Shank.Upper.Post			L.Shank.Lower.Ant			L.Shank.Lower.Post			L.Shank.Upper.Ant			L.Ankle.Lat			L.Ankle.Med			L.Heel.Upper			L.Heel.Med			L.Heel.Lat			L.Toe.Lat			L.Toe.Med			L.Toe.Tip			Cervical.Spine			Back			
		X1	Y1	Z1	X2	Y2	Z2	X3	Y3	Z3	X4	Y4	Z4	X5	Y5	Z5	X6	Y6	Z6	X7	Y7	Z7	X8	Y8	Z8	X9	Y9	Z9	X10	Y10	Z10	X11	Y11	Z11	X12	Y12	Z12	X13	Y13	Z13	X14	Y14	Z14	X15	Y15	Z15	X16	Y16	Z16	X17	Y17	Z17	X18	Y18	Z18	X19	Y19	Z19	X20	Y20	Z20	X21	Y21	Z21	X22	Y22	Z22	X23	Y23	Z23	X24	Y24	Z24	X25	Y25	Z25	X26	Y26	Z26	X27	Y27	Z27	X28	Y28	Z28	X29	Y29	Z29	X30	Y30	Z30	X31	Y31	Z31	X32	Y32	Z32	X33	Y33	Z33	X34	Y34	Z34	X35	Y35	Z35	X36	Y36	Z36	X37	Y37	Z37	X38	Y38	Z38	X39	Y39	Z39	X40	Y40	Z40	X41	Y41	Z41	X42	Y42	Z42	X43	Y43	Z43	X44	Y44	Z44	X45	Y45	Z45	X46	Y46	Z46	X47	Y47	Z47	X48	Y48	Z48	X49	Y49	Z49	X50	Y50	Z50	X51	Y51	Z51	

2101	8.75	644.92	1125.7	310.73	514.61	1357.3	441.33	525.02	1349.9	144.89	565.26	1642.3	292.19	605.54	938.46	417.86	631.48	924.63	205.12	396.87	971.71	338.3	400.6	970.47	263.1	515.19	834.81	504.76	506.17	840.66	107.39	499.51	989.05	463.73	517.55	973.89	129.92	372.82	923.01	294.66	515.16	631	501.96	561.76	544.66	472.8	490.35	544.29	488.51	581.49	631.51	482.58	500.46	464.62	477.1	493.17	438.64	334.85	419.23	258.68	475.47	495.52	179.17	469.56	429.13	185.45	471.66	491.65	249.1	480.67	452.56	89.918	467.87	468.19	97.051	385.11	398.41	72.535	408.45	415.53	40.815	383.03	397.84	41.962	444.74	552.93	41.23	508.26	599	35.389	405.41	638.88	64.205	467.34	456.47	625.04	121.03	522.25	536.54	119.98	444.74	535.62	135.19	526.84	631.13	106.28	494.48	459.86	124.43	488.6	444.12	264.26	410.56	289.89	115.78	487.2	207.94	115.12	415.61	215.99	125.83	474.84	283.19	106.8	457.66	100.25	121.07	477.78	92.357	201.66	404.32	65.554	159.65	417.78	39.706	191.64	407.52	38.133	130.77	567.97	37.041	79.42	603.2	46.974	184.65	656.12	65.114	130.95	441.86	1407	288.7	380.01	1155	296.94
2102	8.7542	644.94	1125.7	310.74	514.65	1357.3	441.33	525.07	1349.9	144.89	565.28	1642.3	292.19	605.56	938.46	417.86	631.51	924.63	205.12	396.89	971.71	338.29	400.63	970.48	263.09	515.2	834.81	504.77	506.21	840.65	107.39	499.53	989.05	463.73	517.58	973.88	129.92	372.84	923.01	294.65	515.18	631	501.96	561.77	544.66	472.8	490.36	544.29	488.51	581.51	631.51	482.58	500.47	464.62	477.1	493.18	438.63	334.85	419.24	258.69	475.47	495.53	179.17	469.56	429.14	185.45	471.66	491.66	249.1	480.67	452.57	89.918	467.87	468.2	97.052	385.1	398.41	72.537	408.45	415.53	40.816	383.03	397.84	41.964	444.74	552.93	41.23	508.25	599	35.389	405.41	638.88	64.202	467.34	456.49	625.04	121.03	522.28	536.54	119.98	444.79	535.62	135.2	526.87	631.13	106.28	494.5	459.86	124.43	488.61	444.12	264.25	410.57	289.89	115.78	487.21	207.94	115.12	415.62	215.99	125.83	474.85	283.19	106.8	457.66	100.24	121.07	477.78	92.357	201.66	404.32	65.554	159.65	417.78	39.708	191.64	407.52	38.134	130.77	567.97	37.04	79.421	603.2	46.974	184.65	656.12	65.114	130.95	441.91	1407	288.69	380.04	1155	296.93
2103	8.7583	644.97	1125.7	310.75	514.68	1357.3	441.32	525.12	1349.9	144.89	565.31	1642.3	292.19	605.58	938.46	417.86	631.53	924.63	205.12	396.92	971.72	338.29	400.66	970.48	263.08	515.22	834.81	504.77	506.24	840.64	107.39	499.54	989.05	463.73	517.62	973.88	129.92	372.87	923.01	294.64	515.2	631	501.96	561.78	544.66	472.8	490.38	544.29	488.51	581.52	631.5	482.58	500.48	464.62	477.1	493.2	438.63	334.85	419.25	258.69	475.47	495.53	179.17	469.56	429.14	185.45	471.66	491.66	249.11	480.67	452.57	89.919	467.87	468.2	97.054	385.1	398.42	72.539	408.45	415.53	40.818	383.03	397.84	41.965	444.74	552.93	41.23	508.25	599	35.389	405.41	638.88	64.2	467.34	456.52	625.04	121.03	522.3	536.54	119.98	444.83	535.61	135.2	526.89	631.13	106.28	494.52	459.86	124.43	488.62	444.12	264.25	410.58	289.89	115.77	487.22	207.94	115.12	415.63	215.99	125.83	474.86	283.19	106.8	457.66	100.24	121.07	477.78	92.358	201.66	404.32	65.554	159.65	417.78	39.71	191.64	407.52	38.134	130.77	567.97	37.04	79.422	603.2	46.974	184.65	656.12	65.113	130.95	441.95	1407	288.68	380.08	1155	296.92
2104	8.7625	645	1125.6	310.75	514.72	1357.3	441.32	525.17	1349.9	144.88	565.34	1642.4	292.19	605.6	938.46	417.86	631.56	924.63	205.13	396.94	971.72	338.28	400.69	970.48	263.07	515.24	834.82	504.77	506.27	840.64	107.38	499.56	989.05	463.72	517.66	973.88	129.91	372.9	923.01	294.63	515.21	631	501.96	561.8	544.66	472.79	490.39	544.29	488.51	581.54	631.5	482.58	500.49	464.62	477.09	493.21	438.63	334.85	419.25	258.69	475.47	495.53	179.17	469.56	429.14	185.45	471.66	491.67	249.11	480.67	452.57	89.92	467.87	468.2	97.056	385.1	398.42	72.54	408.45	415.53	40.819	383.03	397.84	41.966	444.74	552.93	41.23	508.25	599	35.388	405.41	638.88	64.198	467.34	456.55	625.04	121.02	522.32	536.54	119.98	444.87	535.6	135.21	526.92	631.13	106.28	494.54	459.86	124.43	488.63	444.13	264.25	410.59	289.89	115.77	487.22	207.94	115.12	415.63	215.99	125.83	474.87	283.19	106.8	457.66	100.24	121.07	477.78	92.358	201.66	404.32	65.554	159.65	417.78	39.712	191.64	407.52	38.135	130.77	567.97	37.04	79.422	603.2	46.974	184.65	656.12	65.113	130.95	441.99	1407.1	288.67	380.11	1155	296.91
